<?xml version="1.0" standalone="no"?>
<!DOCTYPE svg PUBLIC "-//W3C//DTD SVG 20010904//EN"
 "http://www.w3.org/TR/2001/REC-SVG-20010904/DTD/svg10.dtd">
<svg version="1.0" xmlns="http://www.w3.org/2000/svg"
 width="398.000000pt" height="398.000000pt" viewBox="0 0 398.000000 398.000000"
 preserveAspectRatio="xMidYMid meet">
<metadata>
Created by potrace 1.14, written by Peter Selinger 2001-2017
</metadata>
<g transform="translate(0.000000,398.000000) scale(0.100000,-0.100000)"
fill="#000000" stroke="none">
<path d="M0 1990 l0 -1990 1990 0 1990 0 0 1990 0 1990 -1990 0 -1990 0 0
-1990z m1273 1113 c-139 -2 -367 -2 -505 0 -139 1 -26 2 252 2 278 0 391 -1
253 -2z m1980 0 c-117 -2 -309 -2 -425 0 -117 1 -22 2 212 2 234 0 329 -1 213
-2z m274 -155 c-2 -18 -4 -6 -4 27 0 33 2 48 4 33 2 -15 2 -42 0 -60z m10
-1400 c-2 -29 -3 -6 -3 52 0 58 1 81 3 53 2 -29 2 -77 0 -105z"/>
</g>
</svg>
